<svg width="411" height="363" viewBox="0 0 411 363" fill="none" xmlns="http://www.w3.org/2000/svg">
<path d="M95.5 55.2C95.2 55.9 95.1 101 95.2 155.5L95.5 254.5H104H112.5L112.8 163.8L113 73L191.8 72.8L270.5 72.5V63.5V54.5L183.2 54.2C113.9 54 95.8 54.2 95.5 55.2Z" fill="#FF1717"/>
<path d="M125.7 78.7L120 79.1L120.2 166.8L120.5 254.5H195.5H270.5L270.8 247.6C271 243.8 270.7 240.3 270.3 239.9C269.8 239.4 239.4 239 202.7 239L136 238.9V159.5C136 82 136 80 134.1 79C133 78.5 132 78.1 131.8 78.2C131.6 78.3 128.9 78.5 125.7 78.7Z" fill="#861F1F"/>
<path d="M141.2 155.2L141.5 231.5H148H154.5L154.8 162.2L155 93H212.3C243.9 93 269.9 92.8 270.1 92.6C270.3 92.4 270.3 89.2 270.2 85.6L269.8 79H205.4H141L141.2 155.2Z" fill="#FF1717"/>
<path d="M160 224V232H214.8C245 232 269.9 231.8 270.1 231.6C270.3 231.4 270.4 227.8 270.2 223.6L269.8 216H214.9H160V224Z" fill="#FF1717"/>
<rect x="277" y="54" width="14" height="202" fill="#A6A6A6"/>
<rect x="296" y="54" width="14" height="202" fill="#D9D9D9"/>
<rect x="316" y="54" width="14" height="202" fill="white"/>
</svg>
